<?xml version="1.0" encoding="utf-8"?><svg viewBox="0 0 36 36" xmlns="http://www.w3.org/2000/svg" xmlns:xlink="http://www.w3.org/1999/xlink"><style>:root>svg{display:none}:root>svg:target{display:block}</style><svg fill="none" viewBox="0 0 14 8" id="arrow-down" xmlns="http://www.w3.org/2000/svg"><path d="M1 1l6 6 6-6" stroke="#00857C" stroke-width="2" stroke-linecap="round" stroke-linejoin="round"/></svg><svg fill="none" viewBox="0 0 36 36" id="arrow-left" xmlns="http://www.w3.org/2000/svg"><circle cx="18" cy="18" r="17.5" transform="rotate(-180 18 18)" stroke="#B9B9B9"/><path d="M20 24l-6-6 6-6" stroke="#000"/></svg><svg fill="none" viewBox="0 0 36 36" id="arrow-right" xmlns="http://www.w3.org/2000/svg"><circle cx="18" cy="18" r="17.5" stroke="#B9B9B9"/><path d="M16 12l6 6-6 6" stroke="#000"/></svg><svg fill="none" viewBox="0 0 28 28" id="avatar" xmlns="http://www.w3.org/2000/svg"><circle cx="14" cy="14" r="14" fill="#B1EAD9"/><path opacity=".5" fill-rule="evenodd" clip-rule="evenodd" d="M14 22a8 8 0 100-16 8 8 0 000 16zm0 2c5.523 0 10-4.477 10-10S19.523 4 14 4 4 8.477 4 14s4.477 10 10 10z" fill="#00857C"/><circle opacity=".5" cx="10.5" cy="13.5" r="1.5" fill="#00857C"/><circle opacity=".5" cx="17.5" cy="13.5" r="1.5" fill="#00857C"/><path opacity=".5" d="M14 19.5c-2.333 0-3.306-1.667-3.5-2.5h7c-.194.833-1.167 2.5-3.5 2.5z" fill="#00857C"/></svg></svg>